<svg xmlns="http://www.w3.org/2000/svg" fill="none" viewBox="0 0 1500 1500"><defs><clipPath id="a"><path d="M0 0h1500v1500H0z"/></clipPath></defs><path fill="#f4b8b8" d="M1123.983 1057.67H399.459c-28.478 0-51.563-23.085-51.563-51.563v-473.89c0-28.478 23.085-51.563 51.563-51.563h724.524c28.478 0 51.563 23.085 51.563 51.563v473.89c0 28.478-23.085 51.563-51.563 51.563"/><path fill="#5c0000" d="M1175.546 554.862v-22.645c0-28.478-23.085-51.563-51.563-51.563H399.459c-28.478 0-51.563 23.085-51.563 51.563v22.645z"/><path fill="#fbe0e0" d="M1099.745 1028.866h-248.91c-6.245 0-11.354-5.108-11.354-11.353V599.865c0-6.245 5.109-11.353 11.354-11.353h248.91c6.245 0 11.354 5.108 11.354 11.353v417.648c0 6.245-5.109 11.353-11.354 11.353"/><g clip-path="url(#a)"><path fill="#8b1e3f" d="M1100.89 910.371H979.028c-7.228 0-13.072-5.887-13.021-13.114l.562-78.882c.051-7.155 5.866-12.928 13.021-12.928h121.862c7.228 0 13.072 5.887 13.021 13.114l-.562 78.882c-.051 7.155-5.866 12.928-13.021 12.928"><animate fill="freeze" attributeName="fill" begin="0s" calcMode="spline" dur="3s" keySplines="0 0 1 1; 0 0 1 1; 0 0 1 1; 0 0 1 1; 0 0 1 1; 0 0 1 1; 0 0 1 1" keyTimes="0; 0.016667; 0.072222; 0.461111; 0.516666; 0.572222; 0.961111; 1" repeatCount="indefinite" values="#8b1e3f; #8b1e3f; #ff8272; #ff8272; #8b1e3f; #3d0000; #8b1e3f; #8b1e3f"/></path><path fill="#b3121c" d="M978.629 910.371c-5.5 0-8.828-6.078-5.864-10.711l24.975-39.043c3.123-4.882 10.155-5.135 13.553-.487l30.621 41.889L1063.395 879c4.121-4.416 11.008-4.712 15.432-.662l26.693 24.437c2.942 2.693 1.037 7.596-2.952 7.596z"/><g transform="translate(515 535)"><animate fill="freeze" attributeName="opacity" begin="0s" calcMode="spline" dur="3s" keySplines="0 0 1 1; 0 0 1 1; 0 0 1 1; 0 0 1 1; 0 0 1 1" keyTimes="0; 0.511111; 0.516667; 0.527778; 0.533333; 1" repeatCount="indefinite" values="1; 1; 0; 0; 1; 1"/><g transform="translate(609.534 311.786)"><animateTransform fill="freeze" attributeName="transform" begin="0s" calcMode="spline" dur="3s" keySplines="0 0 1 1; 0 0 1 1; 0 0 1 1; 0 0 1 1; 0 0 1 1; 0 0 1 1" keyTimes="0; 0.016667; 0.266667; 0.516666; 0.527777; 0.766667; 1" repeatCount="indefinite" type="translate" values="609.534 311.786; 609.534 311.786; 524.962 289.786; 440.391 311.786; 609.534 311.786; 524.962 289.786; 440.391 311.786"/><path fill="#fff" d="M8.352 0C8.319 4.613 4.554 8.352-.059 8.352A8.28 8.28 0 0 1-8.352 0c.033-4.613 3.798-8.352 8.411-8.352A8.28 8.28 0 0 1 8.352 0"><animate fill="freeze" attributeName="fill" begin="0s" calcMode="spline" dur="3s" keySplines="0 0 1 1; 0 0 1 1; 0 0 1 1; 0 0 1 1" keyTimes="0; 0.516667; 0.522222; 0.527778; 1" repeatCount="indefinite" values="#ffffff; #ffffff; #ff8272; #ffb3ab; #ffb3ab"/></path></g></g><path fill="#fff" d="M998.191 870.36s12.461 1.019 13.224 1.696c.359.319 4.498.337 8.776.267l-8.864-12.313c-3.398-4.648-10.478-4.274-13.601.608l-8.081 12.633zM1078.884 878.262c-4.424-4.05-11.311-3.754-15.432.662l-6.835 7.324 9.731 5.226 23.255-3.4z"/><path fill="#fbe0e0" d="M927.174 811.5h38.827v88.503h-38.827z"/><path fill="#f4b8b8" d="M1114.795 812.962h38.827v88.503h-38.827z"/></g><path fill="#ffab8f" d="m1154.872 853.397-20.834 21.395a21.9 21.9 0 0 1-8.035 5.238l-17.806-21.164-3.162 10.266 13.633 17.498c3.658 4.695 9.746 6.945 15.51 5.461 1.09-.281 2.051-.653 2.775-1.158l25.978-25.112z"/><path fill="#c41e2e" d="m1154.804 849.339-23.183 27.305 9.368 11.539 27.686-23.336z"/><path fill="#ffab8f" d="m1154.882 829.921-2.623 1.064-.409-4.805a9.05 9.05 0 0 0-9.786-8.251l-3.006.256a9.05 9.05 0 0 0-8.251 9.786l.96 11.282a9.05 9.05 0 0 0 9.786 8.251h.002c2.437-.236 3.613.767 5.048 4.173 1.285 3.049 1.462 5.958 1.609 9.263 3.958-.91 9.045-1.984 13.106-1.951-2.419-9.876-5.996-18.909-6.436-29.068"/><path fill="#2b0000" d="M1134.106 826.605c-8.648-7.637 2.63-17.782 15.044-15.874 7.444 1.144 14.168 2.656 16.85 10.827.813 2.478.822.722 1.147 3.31.888 7.07-.563 8.045-4.287 15.67-5.474 11.207-17.111 7.389-19.451 4.309-1.768-2.327-6.368-15.65-9.303-18.242"/><path fill="#ffab8f" d="m1137.461 869.063-10.701 27.88a21.9 21.9 0 0 1-5.316 7.984l-24.712-12.421 1.145 10.681 19.432 10.698c5.214 2.871 11.696 2.537 16.406-1.102.891-.688 1.627-1.409 2.093-2.159l13.96-33.326z"/><path fill="#ffab8f" d="m1103.088 899.325.001-.003c.735-2.793-.949-5.681-3.742-6.416l-8.127-2.139c-2.794-.735-5.681.949-6.416 3.743l-.001.002c-.735 2.793.95 5.681 3.743 6.416l8.126 2.139c2.794.735 5.681-.948 6.416-3.742M1144.055 833.669c.267 3.133-1.44 5.837-3.813 6.039s-4.512-2.174-4.779-5.307 1.44-5.837 3.813-6.039 4.512 2.174 4.779 5.307"/><path fill="#c41e2e" d="m1135.797 865.361-10.527 34.238 13.161 6.906 16.231-32.368z"/><path fill="#ffab8f" d="m1164.879 933.353-13.885 60.008a51.6 51.6 0 0 0-1.319 10.751l-.883 52.697h-8.478l-8.438-50.69a51.5 51.5 0 0 1 .03-17.094l8.623-50.729z"/><path fill="#ffab8f" d="M1168.76 936.57c6.774 40.294 19.015 77.854 42.045 110.017l-10.648 5.097c-29.111-31.511-45.094-65.111-51.64-100.213z"/><path fill="#c41e2e" d="M1176.314 908.458c12.501 23.278 9.093 34.168 9.628 74.974.027 2.085-1.955 3.866-4.288 3.836l-45.745-.583c-2.323-.03-4.257-2.63-3.872-4.702l13.46-72.069z"/><path fill="#fff" d="M1153.528 826.626a6.886 6.886 0 1 0 13.562-2.4 6.886 6.886 0 0 0-13.562 2.4"/><path fill="#2b0000" d="M1159.543 824.076c2.148-3.136 6.305-4.271 9.683-2.527 2.355 1.216 4.843 3.726 6.822 8.622 5.382 13.316 14.654 3.774 16.064 10.05s-1.368 25.735-13.592 18.887-16.899-11.852-15.307-20.026c.762-3.91-.81-6.397-2.657-7.927-2.115-1.753-2.565-4.813-1.013-7.079"/><path fill="#c41e2e" d="M1154.995 858.032c-5.128 1.069-9.143 1.894-14.228 3.152-9.735 2.408-8.137 25.975-8.137 25.975s17.799 34.391 20.422 50.981c5.571-.406 2.575 4.386 9.047 3.222v.002c7.007-1.017 12.554-12.535 19.421-14.482-.846-12.11-1.382-49.792-3.96-62.495-2.804-13.813-17.401-7.108-22.565-6.355"/><path fill="#ffab8f" d="M1145.179 860.054s4.565 1.809 10.952.678 6.686-3.801 6.686-3.801l-9.23-.761z"/><path fill="#2b0000" d="m1141.366 1055.352 7.873-.096 1.366 5.807c.245 1.043.101 2.217-.492 2.997-.434.57-1.041.928-3.162.936l-19.647.238c-.486.023-2.018-5.652 4.122-7.422 0 0 7.447-2.43 9.94-2.46M1202.336 1049.474l6.588-4.654 4.287 3.93c.77.706 1.283 1.745 1.204 2.724-.058.716-.376 1.36-.942 1.76l-16.439 11.616c-1.615 1.141-5.973-2.587-1.751-7.596 0 0 4.968-6.306 7.053-7.78"/><path fill="#fff" d="M959.112 784.418h-80.858c-5.251 0-9.548-4.297-9.548-9.548v-26.89c0-5.251 4.297-9.548 9.548-9.548h80.858c5.251 0 9.548 4.297 9.548 9.548v26.89c0 5.251-4.297 9.548-9.548 9.548"/><path fill="#c41e2e" d="M919.266 756.769h-36.324a3.62 3.62 0 0 1-3.61-3.61 3.62 3.62 0 0 1 3.61-3.61h36.324a3.62 3.62 0 0 1 3.61 3.61 3.62 3.62 0 0 1-3.61 3.61"/><path fill="#c41e2e" d="M952.761 756.769h-36.324a3.62 3.62 0 0 1-3.61-3.61 3.62 3.62 0 0 1 3.61-3.61h36.324a3.62 3.62 0 0 1 3.61 3.61 3.62 3.62 0 0 1-3.61 3.61M901.308 773.301h-18.366a3.62 3.62 0 0 1-3.611-3.61 3.62 3.62 0 0 1 3.611-3.61h18.366a3.62 3.62 0 0 1 3.611 3.61 3.62 3.62 0 0 1-3.611 3.61"/><path fill="#e63946" d="M406.589 518.527c0 6.139-4.977 11.116-11.116 11.116s-11.116-4.977-11.116-11.116 4.977-11.116 11.116-11.116 11.116 4.977 11.116 11.116"/><path fill="#fff" d="M449.439 518.527c0 6.139-4.977 11.116-11.116 11.116s-11.116-4.977-11.116-11.116 4.977-11.116 11.116-11.116 11.116 4.977 11.116 11.116"/><path fill="#f4b8b8" d="M492.289 518.527c0 6.139-4.977 11.116-11.116 11.116s-11.116-4.977-11.116-11.116 4.977-11.116 11.116-11.116 11.116 4.977 11.116 11.116"/><path fill="#fbe0e0" d="M788.178 1028.866H421.123c-7.525 0-13.682-6.156-13.682-13.681V602.193c0-7.525 6.157-13.681 13.682-13.681h367.055c7.525 0 13.681 6.156 13.681 13.681v412.992c0 7.525-6.156 13.681-13.681 13.681"/><g clip-path="url(#a)"><path fill="#fff" d="M740.695 983.921H458.339c-7.525 0-13.682-6.156-13.682-13.681V835.556c0-7.525 6.157-13.681 13.682-13.681h282.356c7.525 0 13.682 6.156 13.682 13.681V970.24c0 7.525-6.157 13.681-13.682 13.681"/><path fill="#fbe0e0" d="M485.504 968.607a1.9 1.9 0 0 1-1.9-1.9V847.365a1.9 1.9 0 0 1 3.8 0v119.342a1.9 1.9 0 0 1-1.9 1.9M531.109 968.607a1.9 1.9 0 0 1-1.9-1.9V847.365a1.9 1.9 0 0 1 3.8 0v119.342a1.9 1.9 0 0 1-1.9 1.9M576.715 968.607a1.9 1.9 0 0 1-1.9-1.9V847.365a1.9 1.9 0 0 1 3.8 0v119.342a1.9 1.9 0 0 1-1.9 1.9M622.32 968.607a1.9 1.9 0 0 1-1.9-1.9V847.365a1.9 1.9 0 0 1 3.8 0v119.342a1.9 1.9 0 0 1-1.9 1.9M667.925 968.607a1.9 1.9 0 0 1-1.9-1.9V847.365a1.9 1.9 0 1 1 3.8 0v119.342a1.9 1.9 0 0 1-1.9 1.9"/><path fill="#fbe0e0" d="M483.604 966.707a1.9 1.9 0 0 1 1.9-1.9H713.53a1.9 1.9 0 0 1 0 3.8H485.504a1.9 1.9 0 0 1-1.9-1.9"/><path fill="#fbe0e0" d="M715.43 970.507a1.9 1.9 0 0 1-1.9-1.9V849.265a1.9 1.9 0 0 1 3.8 0v119.342a1.9 1.9 0 0 1-1.9 1.9"/><path stroke="#c41e2e" stroke-linecap="round" stroke-linejoin="round" stroke-width="5.701" d="M475.924 936.315s12.28-36.219 48.016-28.509c35.688 7.7 48.169 17.019 76.306-11.146a196 196 0 0 0 7.536-8.016c25.236-28.273 35.552-32.756 66.327-26.355s52.201-25.01 52.201-25.01"><animate fill="freeze" attributeName="d" begin="0s" calcMode="spline" dur="3s" keySplines="0 0 1 1; 0 0 1 1; 0 0 1 1" keyTimes="0; 0.016667; 0.516666; 1" repeatCount="indefinite" values="M-125.193,49.518C-125.193,49.518,-112.913,13.299,-77.177,21.009C-41.489,28.709,-29.008,38.028,-0.871,9.863C1.52,7.47,4.024,4.806,6.665,1.847C31.901,-26.426,42.217,-30.909,72.992,-24.508C103.767,-18.107,125.193,-49.518,125.193,-49.518; M-125.193,49.518C-125.193,49.518,-112.913,13.299,-77.177,21.009C-41.489,28.709,-29.008,38.028,-0.871,9.863C1.52,7.47,4.024,4.806,6.665,1.847C31.901,-26.426,42.217,-30.909,72.992,-24.508C103.767,-18.107,125.193,-49.518,125.193,-49.518; M-125.193,49.518C-125.193,49.518,-112.663,6.049,-76.927,13.759C-40.182,21.687,-35.367,103.953,-1.329,19.261C-0.46,17.099,6.445,3.274,8.165,1.347C33.401,-26.926,46.717,-9.909,77.492,-3.508C108.267,2.893,125.193,-49.518,125.193,-49.518; M-125.193,49.518C-125.193,49.518,-112.913,13.299,-77.177,21.009C-41.489,28.709,-29.008,38.028,-0.871,9.863C1.52,7.47,4.024,4.806,6.665,1.847C31.901,-26.426,42.217,-30.909,72.992,-24.508C103.767,-18.107,125.193,-49.518,125.193,-49.518"/></path><g transform="translate(575.202 914.845)"><animateTransform fill="freeze" attributeName="transform" begin="0s" calcMode="spline" dur="3s" keySplines="0 0 1 1; 0 0 1 1; 0 0 1 1" keyTimes="0; 0.016667; 0.516666; 1" repeatCount="indefinite" type="translate" values="60.202 379.845; 60.202 379.845; 60.202 407.845; 60.202 379.845"/><path fill="#c41e2e" d="M6.271 0A6.271 6.271 0 1 1-6.272-.001 6.271 6.271 0 0 1 6.271 0"/></g><g transform="translate(646.493 861.544)"><animateTransform fill="freeze" attributeName="transform" begin="0s" calcMode="spline" dur="3s" keySplines="0 0 1 1; 0 0 1 1; 0 0 1 1" keyTimes="0; 0.016667; 0.516666; 1" repeatCount="indefinite" type="translate" values="131.493 326.544; 131.493 326.544; 131.493 338.544; 131.493 326.544"/><path fill="#c41e2e" d="M6.271 0A6.271 6.271 0 1 1-6.272-.001 6.271 6.271 0 0 1 6.271 0"/></g></g><g clip-path="url(#a)"><path fill="#2b0000" d="m422.405 860.379-34.022 19.418-50.411-2.525 29.305-16.488 54.56-2.371c1.103-.048 1.527 1.419.568 1.966"/><path fill="#2b0000" d="M431.323 820.252h-51.267c-1.073 0-2.163.877-2.423 1.95l-8.39 34.644c-.26 1.073.405 1.95 1.478 1.95h51.267c1.073 0 2.163-.877 2.423-1.95l8.39-34.644c.26-1.073-.405-1.95-1.478-1.95"/><path fill="#f7c6c6" d="M425.763 823.788h-41.86c-.876 0-1.766.717-1.978 1.593l-6.851 28.286c-.212.876.331 1.593 1.207 1.593h41.86c.876 0 1.766-.717 1.978-1.593l6.851-28.286c.212-.876-.331-1.593-1.207-1.593"/><path fill="#4a0000" d="m421.988 858.797-33.605 18.439-50.411-2.524 29.305-16.488z"/><path fill="#ffab8f" d="M415.53 862.637a4.166 4.166 0 0 0-5.274-2.595l-6.295 2.151c-2.162.739-3.326 3.115-2.589 5.28a4.166 4.166 0 0 0 5.274 2.595l6.295-2.151c2.162-.739 3.326-3.115 2.589-5.28"/><path fill="#2b0000" d="m351.856 1054.507-8.546-.103-1.483 6.303c-.266 1.132-.11 2.407.534 3.253.471.619 1.129 1.007 1.863 1.016l21.328.258c2.096.025 3.759-6.135-2.906-8.056 0 0-8.084-2.638-10.79-2.671M310.876 1054.507l-8.546-.103-1.483 6.303c-.266 1.132-.11 2.407.534 3.253.471.619 1.129 1.007 1.863 1.016l21.328.258c2.096.025 3.759-6.135-2.906-8.056 0 0-8.084-2.638-10.79-2.671"/><path fill="#5c0000" d="M357.164 916.086v138.318h-15.303l-14.175-138.318z"/><path fill="#5c0000" d="m332.735 916.085-15.821 138.318h-15.303l4.107-140.718z"/><path fill="#e63946" d="M317.173 834.095c5.673-.17 10.294-.339 15.967-.509l17.019.509c4.233.127 6.125.441 8.045 2.591 2.817 3.154 2.683 23.502 2.683 23.502s-2.926 51.553-3.723 69.579c-6.07.613-44.227-.21-51.887-.983-.573-12.958.499-58.8.499-72.714 0-16.566 9.545-21.92 11.397-21.975"/><path fill="#ffab8f" d="m362.598 846.034 16.739 19.308c2.551 2.942 3.384 4.666 6.577 5.188l18.373-5.981 1.265 5.742-19.018 11.037c-3.414 1.701-7.719 1.041-11.299-2.025l-.077-.066-25.13-21.775z"/><path fill="#e63946" d="m343.961 851.94 28.234 26.875 10.544-11.39-25.374-31.132z"/><path fill="#b3121c" d="m398.644 839.4 10.828-8.498c-.92-.79-2.01-1.457-3.26-1.963-6.558-2.652-15.036.104-18.937 6.157-3.9 6.053-1.745 13.111 4.813 15.764 2.455.993 5.179 1.229 7.831.816z"/><g transform="rotate(22.02 -1936.497 1481.25)"><animateTransform fill="freeze" attributeName="transform" begin="0s" calcMode="spline" dur="3s" keySplines="0 0 1 1; 0.333 0 0.667 1; 0.333 0 0.667 1" keyTimes="0; 0.016667; 0.516666; 1" repeatCount="indefinite" type="translate" values="-109.689 292.904; -109.689 292.904; -113.937 297.869; -109.689 292.904"/><g><animateTransform fill="freeze" attributeName="transform" begin="0s" calcMode="spline" dur="3s" keySplines="0 0 1 1; 0.333 0 0.667 1; 0.333 0 0.667 1" keyTimes="0; 0.016667; 0.516666; 1" repeatCount="indefinite" type="scale" values="1 1; 1 1; 0.78 0.78; 1 1"/><path fill="#ff4d4d" d="M-5.232 5.087.702-5.087s4.485 2.433 4.53 7.686z"/></g></g><g transform="rotate(22.02 -1964.041 1454.909)"><animateTransform fill="freeze" attributeName="transform" begin="0s" calcMode="spline" dur="3s" keySplines="0 0 1 1; 0.333 0 0.667 1; 0.333 0 0.667 1" keyTimes="0; 0.016667; 0.516666; 1" repeatCount="indefinite" type="translate" values="-117.557 305.156; -117.557 305.156; -114.26 306.488; -117.434 305.041"/><g transform="scale(.78)"><animateTransform fill="freeze" attributeName="transform" begin="0s" calcMode="spline" dur="3s" keySplines="0 0 1 1; 0.333 0 0.667 1; 0.333 0 0.667 1" keyTimes="0; 0.016667; 0.516666; 1" repeatCount="indefinite" type="scale" values="0.78 0.78; 0.78 0.78; 1 1; 0.78 0.78"/><path fill="#fff" d="m-1.991-1.02 9.94-2.674C8.878-.538 5.824 5.463 2.426 7.558z"/></g></g><g transform="rotate(3 -15784.863 6786.818)"><animateTransform fill="freeze" attributeName="transform" begin="0s" calcMode="spline" dur="3s" keySplines="0 0 1 1; 0.333 0 0.667 1; 0.333 0 0.667 1" keyTimes="0; 0.016667; 0.516666; 1" repeatCount="indefinite" type="rotate" values="3; 3; -3; 3"/><path stroke="#2b0000" stroke-miterlimit="10" stroke-width="1.557" d="M25.272-26.837h-4.29a4.53 4.53 0 0 1-4.516-4.516v-1.17a4.53 4.53 0 0 1 4.516-4.516h4.29a4.53 4.53 0 0 1 4.516 4.516v1.17a4.53 4.53 0 0 1-4.516 4.516Z"/><path fill="#ffab8f" d="m-1.917-29.329 2.883 1.062.272-5.228c.283-5.419 4.905-9.583 10.324-9.301l3.27.171c5.419.282 9.584 4.904 9.301 10.323l-.64 12.274c-.282 5.419-4.904 9.583-10.323 9.301h-.002c-2.652-.169-3.893.961-5.328 4.707C6.555-2.667 6.466.497 6.424 4.088c-4.327-.846-9.883-1.831-14.288-1.65 2.272-10.801 5.832-20.73 5.947-31.767"/><path fill="#2b0000" d="M20.505-33.667c9.111-8.595-3.487-19.198-16.887-16.685-8.035 1.507-15.277 3.388-17.895 12.348-.794 2.718-.676 2.614-.937 5.433-.712 7.702.708 6.905 5.02 15.045 6.338 11.964 18.827 7.407 21.256 3.982 1.835-2.588 6.351-17.206 9.443-20.123"/><path fill="#ffab8f" d="M10.454-1.528S5.917 1.27-1.124 1.27-8.99-1.528-8.99-1.528l9.722-2.56zM9.962-25.647c-.178 3.409 1.771 6.281 4.352 6.415s4.818-2.519 4.996-5.928-1.771-6.281-4.352-6.416c-2.581-.134-4.818 2.52-4.996 5.929"/><path fill="#2b0000" d="M28.728-28.773H7.918a1.21 1.21 0 0 1-1.207-1.207 1.21 1.21 0 0 1 1.207-1.207h20.81a1.21 1.21 0 0 1 1.207 1.207 1.21 1.21 0 0 1-1.207 1.207"/></g></g><path fill="#2b0000" d="m766.477 1102.28 8.546-.103 1.483 6.303c.266 1.132.11 2.407-.534 3.253-.471.619-1.129 1.007-1.863 1.016l-21.328.258c-2.096.025-3.759-6.135 2.906-8.056 0 0 8.084-2.638 10.79-2.671M836.048 1102.28l8.546-.103 1.483 6.303c.266 1.132.11 2.407-.534 3.253-.471.619-1.13 1.007-1.864 1.016l-21.327.258c-2.096.025-3.759-6.135 2.906-8.056 0 0 8.084-2.638 10.79-2.671"/><g clip-path="url(#a)"><path fill="#fff" d="M1080.84 710.144H880.23c-6.338 0-11.524-5.186-11.524-11.524v-46.138c0-6.338 5.186-11.524 11.524-11.524h200.61c6.338 0 11.524 5.186 11.524 11.524v46.138c0 6.338-5.186 11.524-11.524 11.524"/><path fill="#e63946" d="M939.226 702.244h-16.772c-14.61 0-26.564-11.954-26.564-26.564s11.954-26.564 26.564-26.564h16.772c14.61 0 26.564 11.954 26.564 26.564s-11.954 26.564-26.564 26.564"/><path fill="#d62839" d="M1010.974 694.946h51.524c4.886 0 8.914-3.997 8.953-8.883l.2-25.762c.038-4.886-3.929-8.883-8.815-8.883h-51.524c-4.886 0-8.914 3.997-8.952 8.883l-.2 25.762c-.038 4.886 3.928 8.883 8.814 8.883"/><path fill="#d62839" d="m1061.526 692.12 5.633 10.404c1.18 2.178-1.004 4.666-3.32 3.783l-38.083-14.188z"/><g transform="matrix(.83 0 0 .83 1014.933 671.002)"><animateTransform fill="freeze" attributeName="transform" begin="0s" calcMode="spline" dur="3s" keySplines="0 0 1 1; 0.333 0 0.667 1; 0.333 0 0.667 1; 0.333 0 0.667 1" keyTimes="0; 0.016667; 0.127778; 0.683333; 1" repeatCount="indefinite" type="scale" values="1 1; 1 1; 1.2 1.2; 1.2 1.2; 1 1"/><path fill="#fff" d="M7.126 0c-.03 3.936-3.245 7.126-7.181 7.126A7.06 7.06 0 0 1-7.126 0c.03-3.935 3.245-7.126 7.181-7.126A7.06 7.06 0 0 1 7.126 0"/></g><g transform="matrix(.83 0 0 .83 1035.564 671.002)"><animateTransform fill="freeze" attributeName="transform" begin="0s" calcMode="spline" dur="3s" keySplines="0 0 1 1; 0.333 0 0.667 1; 0.333 0 0.667 1; 0.333 0 0.667 1; 0 0 1 1" keyTimes="0; 0.127778; 0.238889; 0.572222; 0.683333; 1" repeatCount="indefinite" type="scale" values="1 1; 1 1; 1.2 1.2; 1.2 1.2; 1 1; 1 1"/><path fill="#fff" d="M7.126 0c-.03 3.936-3.245 7.126-7.181 7.126A7.06 7.06 0 0 1-7.126 0c.03-3.935 3.245-7.126 7.181-7.126A7.06 7.06 0 0 1 7.126 0"/></g><g transform="matrix(.83 0 0 .83 1056.194 671.002)"><animateTransform fill="freeze" attributeName="transform" begin="0s" calcMode="spline" dur="3s" keySplines="0 0 1 1; 0.333 0 0.667 1; 0.333 0 0.667 1; 0.333 0 0.667 1; 0 0 1 1" keyTimes="0; 0.238889; 0.35; 0.461111; 0.572222; 1" repeatCount="indefinite" type="scale" values="1 1; 1 1; 1.2 1.2; 1.2 1.2; 1 1; 1 1"/><path fill="#fff" d="M7.126 0C7.096 3.936 3.88 7.126-.055 7.126A7.06 7.06 0 0 1-7.126 0c.03-3.935 3.246-7.126 7.181-7.126A7.06 7.06 0 0 1 7.126 0"/></g></g><g stroke-dasharray="100 0"><g transform="translate(515.299 712.13)"><path stroke="#fff" stroke-linecap="round" stroke-linejoin="round" stroke-width="2.28" d="M56.705 71.73h-113.41c-7.211 0-13.111-5.9-13.111-13.111V-58.619c0-7.211 5.9-13.111 13.111-13.111h113.41c7.211 0 13.111 5.9 13.111 13.111V58.619c0 7.211-5.9 13.111-13.111 13.111"/><animate fill="freeze" attributeName="stroke-dasharray" begin="0s" calcMode="spline" dur="3s" keySplines="0 0 1 1; 0 0 1 1; 0 0 1 1; 0 0 1 1; 0 0 1 1; 0 0 1 1; 0 0 1 1; 0 0 1 1" keyTimes="0; 0.016667; 0.083333; 0.166667; 0.183333; 0.25; 0.327778; 0.85; 1" repeatCount="indefinite" values="100 0; 100 0; 64.793 35.207; 2.804 97.196; 0 100; 0 100; 0 100; 0 100; 100 0"/><animate fill="freeze" attributeName="stroke-dashoffset" begin="0s" calcMode="spline" dur="3s" keySplines="0 0 1 1; 0 0 1 1; 0 0 1 1; 0 0 1 1; 0 0 1 1; 0 0 1 1; 0 0 1 1; 0 0 1 1" keyTimes="0; 0.016667; 0.083333; 0.166667; 0.183333; 0.25; 0.327778; 0.85; 1" repeatCount="indefinite" values="0; 0; -35.207; -97.196; 0; 0; 0; 0; 0"/></g><g transform="translate(474.673 681.313)"><path stroke="#fff" stroke-linecap="round" stroke-linejoin="round" stroke-width="2.28" d="M17.094 0c0 9.441-7.653 17.094-17.094 17.094S-17.094 9.441-17.094 0-9.441-17.094 0-17.094 17.094-9.441 17.094 0"/><animate fill="freeze" attributeName="stroke-dasharray" begin="0s" calcMode="spline" dur="3s" keySplines="0 0 1 1; 0 0 1 1; 0 0 1 1; 0 0 1 1; 0 0 1 1; 0 0 1 1; 0 0 1 1; 0 0 1 1" keyTimes="0; 0.016667; 0.083333; 0.166667; 0.183333; 0.25; 0.327778; 0.85; 1" repeatCount="indefinite" values="100 0; 100 0; 64.793 35.207; 2.804 97.196; 0 100; 0 100; 0 100; 0 100; 100 0"/><animate fill="freeze" attributeName="stroke-dashoffset" begin="0s" calcMode="spline" dur="3s" keySplines="0 0 1 1; 0 0 1 1; 0 0 1 1; 0 0 1 1; 0 0 1 1; 0 0 1 1; 0 0 1 1; 0 0 1 1" keyTimes="0; 0.016667; 0.083333; 0.166667; 0.183333; 0.25; 0.327778; 0.85; 1" repeatCount="indefinite" values="0; 0; -35.207; -97.196; 0; 0; 0; 0; 0"/></g><g transform="translate(533.273 670.49)"><path stroke="#fff" stroke-linecap="round" stroke-linejoin="round" stroke-width="2.28" d="M31.734 3.61h-63.468A3.62 3.62 0 0 1-35.344 0a3.62 3.62 0 0 1 3.61-3.61h63.468A3.62 3.62 0 0 1 35.344 0a3.62 3.62 0 0 1-3.61 3.61"/><animate fill="freeze" attributeName="stroke-dasharray" begin="0s" calcMode="spline" dur="3s" keySplines="0 0 1 1; 0 0 1 1; 0 0 1 1; 0 0 1 1; 0 0 1 1; 0 0 1 1; 0 0 1 1; 0 0 1 1" keyTimes="0; 0.016667; 0.083333; 0.166667; 0.183333; 0.25; 0.327778; 0.85; 1" repeatCount="indefinite" values="100 0; 100 0; 64.793 35.207; 2.804 97.196; 0 100; 0 100; 0 100; 0 100; 100 0"/><animate fill="freeze" attributeName="stroke-dashoffset" begin="0s" calcMode="spline" dur="3s" keySplines="0 0 1 1; 0 0 1 1; 0 0 1 1; 0 0 1 1; 0 0 1 1; 0 0 1 1; 0 0 1 1; 0 0 1 1" keyTimes="0; 0.016667; 0.083333; 0.166667; 0.183333; 0.25; 0.327778; 0.85; 1" repeatCount="indefinite" values="0; 0; -35.207; -97.196; 0; 0; 0; 0; 0"/></g><g transform="translate(518.832 690.632)"><path stroke="#fff" stroke-linecap="round" stroke-linejoin="round" stroke-width="2.28" d="M17.292 3.61h-34.584A3.62 3.62 0 0 1-20.902 0a3.62 3.62 0 0 1 3.61-3.61h34.584A3.62 3.62 0 0 1 20.902 0a3.62 3.62 0 0 1-3.61 3.61"/><animate fill="freeze" attributeName="stroke-dasharray" begin="0s" calcMode="spline" dur="3s" keySplines="0 0 1 1; 0 0 1 1; 0 0 1 1; 0 0 1 1; 0 0 1 1; 0 0 1 1; 0 0 1 1; 0 0 1 1" keyTimes="0; 0.016667; 0.083333; 0.166667; 0.183333; 0.25; 0.327778; 0.85; 1" repeatCount="indefinite" values="100 0; 100 0; 64.793 35.207; 2.804 97.196; 0 100; 0 100; 0 100; 0 100; 100 0"/><animate fill="freeze" attributeName="stroke-dashoffset" begin="0s" calcMode="spline" dur="3s" keySplines="0 0 1 1; 0 0 1 1; 0 0 1 1; 0 0 1 1; 0 0 1 1; 0 0 1 1; 0 0 1 1; 0 0 1 1" keyTimes="0; 0.016667; 0.083333; 0.166667; 0.183333; 0.25; 0.327778; 0.85; 1" repeatCount="indefinite" values="0; 0; -35.207; -97.196; 0; 0; 0; 0; 0"/></g><g transform="translate(474.673 741.555)"><path stroke="#fff" stroke-linecap="round" stroke-linejoin="round" stroke-width="2.28" d="M17.094 0c0 9.441-7.653 17.094-17.094 17.094S-17.094 9.441-17.094 0-9.441-17.094 0-17.094 17.094-9.441 17.094 0"/><animate fill="freeze" attributeName="stroke-dasharray" begin="0s" calcMode="spline" dur="3s" keySplines="0 0 1 1; 0 0 1 1; 0 0 1 1; 0 0 1 1; 0 0 1 1; 0 0 1 1; 0 0 1 1; 0 0 1 1" keyTimes="0; 0.016667; 0.083333; 0.166667; 0.183333; 0.25; 0.327778; 0.85; 1" repeatCount="indefinite" values="100 0; 100 0; 64.793 35.207; 2.804 97.196; 0 100; 0 100; 0 100; 0 100; 100 0"/><animate fill="freeze" attributeName="stroke-dashoffset" begin="0s" calcMode="spline" dur="3s" keySplines="0 0 1 1; 0 0 1 1; 0 0 1 1; 0 0 1 1; 0 0 1 1; 0 0 1 1; 0 0 1 1; 0 0 1 1" keyTimes="0; 0.016667; 0.083333; 0.166667; 0.183333; 0.25; 0.327778; 0.85; 1" repeatCount="indefinite" values="0; 0; -35.207; -97.196; 0; 0; 0; 0; 0"/></g><g transform="translate(533.273 730.731)"><path stroke="#fff" stroke-linecap="round" stroke-linejoin="round" stroke-width="2.28" d="M31.734 3.61h-63.468A3.62 3.62 0 0 1-35.344 0a3.62 3.62 0 0 1 3.61-3.61h63.468A3.62 3.62 0 0 1 35.344 0a3.62 3.62 0 0 1-3.61 3.61"/><animate fill="freeze" attributeName="stroke-dasharray" begin="0s" calcMode="spline" dur="3s" keySplines="0 0 1 1; 0 0 1 1; 0 0 1 1; 0 0 1 1; 0 0 1 1; 0 0 1 1; 0 0 1 1; 0 0 1 1" keyTimes="0; 0.016667; 0.083333; 0.166667; 0.183333; 0.25; 0.327778; 0.85; 1" repeatCount="indefinite" values="100 0; 100 0; 64.793 35.207; 2.804 97.196; 0 100; 0 100; 0 100; 0 100; 100 0"/><animate fill="freeze" attributeName="stroke-dashoffset" begin="0s" calcMode="spline" dur="3s" keySplines="0 0 1 1; 0 0 1 1; 0 0 1 1; 0 0 1 1; 0 0 1 1; 0 0 1 1; 0 0 1 1; 0 0 1 1" keyTimes="0; 0.016667; 0.083333; 0.166667; 0.183333; 0.25; 0.327778; 0.85; 1" repeatCount="indefinite" values="0; 0; -35.207; -97.196; 0; 0; 0; 0; 0"/></g><g transform="translate(518.832 750.874)"><path stroke="#fff" stroke-linecap="round" stroke-linejoin="round" stroke-width="2.28" d="M17.292 3.61h-34.584A3.62 3.62 0 0 1-20.902 0a3.62 3.62 0 0 1 3.61-3.61h34.584A3.62 3.62 0 0 1 20.902 0a3.62 3.62 0 0 1-3.61 3.61"/><animate fill="freeze" attributeName="stroke-dasharray" begin="0s" calcMode="spline" dur="3s" keySplines="0 0 1 1; 0 0 1 1; 0 0 1 1; 0 0 1 1; 0 0 1 1; 0 0 1 1; 0 0 1 1; 0 0 1 1" keyTimes="0; 0.016667; 0.083333; 0.166667; 0.183333; 0.25; 0.327778; 0.85; 1" repeatCount="indefinite" values="100 0; 100 0; 64.793 35.207; 2.804 97.196; 0 100; 0 100; 0 100; 0 100; 100 0"/><animate fill="freeze" attributeName="stroke-dashoffset" begin="0s" calcMode="spline" dur="3s" keySplines="0 0 1 1; 0 0 1 1; 0 0 1 1; 0 0 1 1; 0 0 1 1; 0 0 1 1; 0 0 1 1; 0 0 1 1" keyTimes="0; 0.016667; 0.083333; 0.166667; 0.183333; 0.25; 0.327778; 0.85; 1" repeatCount="indefinite" values="0; 0; -35.207; -97.196; 0; 0; 0; 0; 0"/></g></g><g clip-path="url(#a)"><g stroke-dasharray="100 0"><path fill="#fff" d="M744.799 784.418h-113.41c-7.211 0-13.111-5.9-13.111-13.111V654.069c0-7.211 5.9-13.111 13.111-13.111h113.41c7.211 0 13.111 5.9 13.111 13.111v117.238c0 7.211-5.9 13.111-13.111 13.111"/><path fill="#c41e2e" d="M670.896 734.899h-36.324a3.62 3.62 0 0 1-3.61-3.61 3.62 3.62 0 0 1 3.61-3.61h36.324a3.62 3.62 0 0 1 3.61 3.61 3.62 3.62 0 0 1-3.61 3.61M652.939 751.431h-18.366a3.62 3.62 0 0 1-3.611-3.61 3.62 3.62 0 0 1 3.611-3.61h18.366a3.62 3.62 0 0 1 3.611 3.61 3.62 3.62 0 0 1-3.611 3.61M731.038 734.899h-36.324a3.62 3.62 0 0 1-3.61-3.61 3.62 3.62 0 0 1 3.61-3.61h36.324a3.62 3.62 0 0 1 3.61 3.61 3.62 3.62 0 0 1-3.61 3.61M713.081 751.431h-18.366a3.62 3.62 0 0 1-3.611-3.61 3.62 3.62 0 0 1 3.611-3.61h18.366a3.62 3.62 0 0 1 3.611 3.61 3.62 3.62 0 0 1-3.611 3.61M716.691 700.244c-5.017 0-9.121-4.105-9.121-9.121v-30.516c0-5.016 4.104-9.121 9.121-9.121s9.121 4.105 9.121 9.121v30.516c0 5.016-4.104 9.121-9.121 9.121"/><path fill="#f4b8b8" d="M683.628 700.244c-5.016 0-9.121-4.105-9.121-9.121v-14.046c0-5.016 4.105-9.121 9.121-9.121 5.017 0 9.121 4.105 9.121 9.121v14.046c0 5.016-4.104 9.121-9.121 9.121"/><path fill="#fbe0e0" d="M653.414 700.244c-5.016 0-9.121-4.105-9.121-9.121v-3.048c0-5.017 4.105-9.121 9.121-9.121 5.017 0 9.121 4.104 9.121 9.121v3.048c0 5.016-4.104 9.121-9.121 9.121M743.791 712.688H633.725a2.55 2.55 0 0 1-2.543-2.544 2.55 2.55 0 0 1 2.543-2.544h110.066a2.55 2.55 0 0 1 2.543 2.544 2.55 2.55 0 0 1-2.543 2.544"/></g></g><g clip-path="url(#a)"><path fill="#ffab8f" d="m589.416 1089.652-13.672 18.561c-3.031 4.115-4.4 8.581-3.854 12.574l3.275 23.925-6.919 1.998-8.099-28.506c-.975-3.433-.4-7.386 1.639-11.258l9.443-15.347z"/><path fill="#f7c6c6" d="M659.542 1085.407c-.273-2.974-.711-6.019-2.197-8.624-2.038-3.572-5.855-5.901-9.854-7.064s-8.222-1.296-12.391-1.421c-5.532-.166-18.5-.331-24.178-.497a6 6 0 0 0-.339.001l-16.59.496c-4.169.125-8.392.258-12.391 1.421s-7.816 3.492-9.854 7.064c-1.486 2.605-1.923 5.65-2.196 8.624a98 98 0 0 0-.408 8.254c-.026 3.648 3.281 6.424 6.879 5.821l4.111-.69c3.665-.615 6.978 2.267 6.871 5.981-.311 10.733-.805 31.173-.534 44.855a5.893 5.893 0 0 0 5.537 5.769c5.163.317 11.111.47 16.228.456v.002c6.172.19 21.079-.09 30.479-.611a5.89 5.89 0 0 0 5.562-5.786c.254-14.883-.459-38.857-.835-49.988a5.894 5.894 0 0 1 5.84-6.093l10.45-.096c.344 2.26.274-2.824-.19-7.874"/><path fill="#f0a8a8" d="m643.227 1093.431.776 57.589a3.9 3.9 0 0 1-3.778 3.951l-.054.002-1.553-56.805a4.61 4.61 0 0 1 4.609-4.737"/><path fill="#ffab8f" d="M604.498 1068.095s1.106 12.609 8.04 12.609 11.11-12.609 11.11-12.609l-9.575-2.521z"/><path fill="#2b0000" d="M605.967 1050.45c-5.129 2.24-11.158-.123-13.398-5.252l-2.343-5.366c-2.24-5.129.124-11.158 5.253-13.398s11.158.123 13.398 5.252l2.343 5.366c2.24 5.129-.124 11.158-5.253 13.398"/><path fill="#ffab8f" d="M622.274 1041.362c-.963.299-4.923.481-5.886.78v-5.156c0-5.344-4.333-9.677-9.677-9.677h-3.225c-5.344 0-9.677 4.333-9.677 9.677v12.105c0 5.344 4.333 9.677 9.677 9.677h.001a4.743 4.743 0 0 1 4.793 4.688c.045 3.537-2.76 4.635-3.461 5.049l18.02.326c-.567-10.169-1.018-16.607-.565-27.469"/><path fill="#2b0000" d="M622.185 1055.688s10.971-14.996 5.129-28.471-30.396-12.529-31.594 0 16.625 8.669 16.625 8.669 7.443 1.981 9.009 9.511z"/><path fill="#ffab8f" d="M615.194 1043.103c0 2.785 2.046 5.043 4.571 5.043s4.571-2.258 4.571-5.043-2.046-5.043-4.571-5.043-4.571 2.258-4.571 5.043"/><path fill="#2b0000" d="M605.617 1017.941H592.34c-2.043 0-3.581 1.897-3.113 3.886 1.189 5.053 4.627 13.364 14.441 14.433 10.357 1.128 1.949-18.319 1.949-18.319M616.968 1045.752a1.78 1.78 0 0 1-1.774-1.774v-6.318c0-.976.798-1.774 1.774-1.774s1.774.798 1.774 1.774v6.318c0 .976-.798 1.774-1.774 1.774"/><path fill="#f7c6c6" d="m572.303 1075.91-10.338 19.11 19.03 13.774 14.066-17.793z"/><path fill="#f0a8a8" d="m579.595 1108.62-17.316-11.156a2.382 2.382 0 1 1 2.58-4.006l17.316 11.156a2.382 2.382 0 1 1-2.58 4.006"/><path fill="#2b0000" d="M561.797 1181.556c-17.883-.06-17.83-16.52.053-16.46l7.078.024c5.8.02 10.492 3.212 10.479 7.131l-.01 3.314c-.011 3.342-4.03 6.038-8.976 6.021z"/><path fill="#8b1e3f" d="m575.318 1181.585-2.649-17.026 84.668-25.895c7.158-1.754 14.079 1.926 15.458 8.22 1.248 5.696-2.992 11.602-9.47 13.189-24.95 11.304-52.698 17.493-88.007 21.512"/><path fill="#2b0000" d="M657.332 1168.084c17.883.087 17.801 16.553-.082 16.466l-7.078-.035c-5.8-.028-10.486-3.229-10.467-7.149l.016-3.315c.017-3.343 4.04-6.033 8.986-6.009z"/><path fill="#8b1e3f" d="m644.003 1184.227 3.325-16.938-78.266-30.141c-7.087-2.073-14.226 1.279-15.944 7.487-1.555 5.618 2.383 11.694 8.798 13.57 24.428 12.397 46.879 20.412 82.087 26.022"/><path fill="#ffab8f" d="m644.334 1095.648-3.269 21.847c-.725 4.844-3.341 9.112-7.366 12.018l-24.119 17.411 4.836 5.154 32.734-18.586c3.943-2.239 6.865-5.69 8.321-9.829l4.477-17.106z"/><path fill="#f7c6c6" d="m663.217 1100.231-.242 7.905-21.214-.622.826-16.509 16.247-10.301 3.811 14.499a17.7 17.7 0 0 1 .572 5.028"/><path fill="#f0a8a8" d="m662.033 1111.561-20.489-2.112a2.382 2.382 0 1 1 .488-4.74l20.49 2.113a2.383 2.383 0 1 1-.489 4.739"/><path fill="#2b0000" d="M610.145 1154.152h-44.819c-5.82 0-12.003-4.087-13.809-9.129l-8.613-24.038c-1.806-5.042 1.448-9.129 7.268-9.129h44.819c5.82 0 12.003 4.087 13.809 9.129l10.419 29.08c1.806 5.042-3.254 4.087-9.074 4.087"/><path fill="#2b0000" d="M627.337 1154.225h-24.746a2.35 2.35 0 0 1-2.344-2.344 2.35 2.35 0 0 1 2.344-2.344h24.746a2.35 2.35 0 0 1 2.344 2.344 2.35 2.35 0 0 1-2.344 2.344"/><path fill="#fff" d="M577.343 1131.023h-7.368a2.37 2.37 0 0 1-2.364-2.364c0-1.3 1.064-2.364 2.364-2.364h7.368c1.3 0 2.364 1.064 2.364 2.364s-1.064 2.364-2.364 2.364"/></g><g clip-path="url(#a)"><path fill="#ffab8f" d="m1045.707 412.239 16.473 30.023 1.818 32.774 9.306 2.125 2.508-34.935a26.15 26.15 0 0 0-4.87-17.163l-16.407-22.762z"/><path fill="#2b0000" d="m934.618 553.871 6.421-6.893 6.152 3.609c1.105.648 2.002 1.743 2.187 2.9.135.846-.058 1.666-.609 2.258l-16.021 17.201c-1.574 1.69-7.751-1.667-4.211-8.442 0 0 4.048-8.451 6.081-10.633M987.253 559.773l5.788-7.431 6.446 3.053c1.158.549 2.147 1.56 2.433 2.696.209.831.091 1.665-.406 2.303l-14.445 18.545c-1.419 1.822-7.867-.979-4.937-8.039 0 0 3.288-8.774 5.121-11.127"/><path fill="#d62839" d="m985.849 469.204-44.065 19.976c-6.741 3.056-10.846 8.899-10.385 14.78l3.919 49.947 14.569.493-2.792-42.078c-.225-3.398 2.436-6.708 6.521-8.11l47.942-16.451z"/><path fill="#d62839" d="m1022.771 470.453-50.759 25.838 14.537 61.462 14.569.492-9.006-53.608 36.34-8.662c6.901-3.406 8.362-11.175 3.11-16.541z"/><path fill="#d62839" d="M1029.396 493.846h-42.44v-26.452h50.354v18.537a7.915 7.915 0 0 1-7.914 7.915"/><path fill="#ff8272" d="M1054.535 402.301c-.271-2.944-.703-5.958-2.175-8.537-2.018-3.536-5.796-5.842-9.755-6.993s-8.14-1.282-12.267-1.406c-5.531-.166-18.568-.331-24.1-.497h-.001l-16.593.497c-4.127.124-8.308.255-12.267 1.406s-7.737 3.457-9.755 6.993c-1.472 2.579-1.904 5.593-2.175 8.537a96.6 96.6 0 0 0-.207 15.043l17.706-2.969s-.865 39.446-7.719 58.105c5.918.597 21.559-.419 28.517-.438v.001c7.504.232 28.056-.238 35.525-.992.777-17.576 4.511-59.797 4.511-59.797l10.943-1.157c.34 2.237.272-2.797-.188-7.796"/><path fill="#ffaa82" d="M1000.043 385.163s3.724 4.993 10.589 4.993 8.369-4.993 8.369-4.993l-9.479-2.495z"/><g transform="translate(954.302 420.564)"><animateTransform fill="freeze" attributeName="transform" begin="0s" calcMode="spline" dur="3s" keySplines="0 0 1 1; 0.333 0 0.667 1; 0.333 0 0.667 1; 0 0 1 1" keyTimes="0; 0.516667; 0.683333; 0.85; 1" repeatCount="indefinite" type="rotate" values="0; 0; -5; 0; 0"/><path fill="#ffab8f" d="M11.229-19.724 2.422-2.52C1.218-.169-1.916.348-3.81-1.493l-17.103-16.625-9.882 2.448 22.273 29.829c5.646 7.561 17.035 7.388 22.449-.341l16.868-24.08z"/></g><g transform="translate(928.536 390.157)"><animateTransform fill="freeze" attributeName="transform" begin="0s" calcMode="spline" dur="3s" keySplines="0 0 1 1; 0.333 0 0.667 1; 0.333 0 0.667 1; 0 0 1 1" keyTimes="0; 0.516667; 0.683333; 0.85; 1" repeatCount="indefinite" type="rotate" values="0; 0; -5; 0; 0"/><path fill="#2b0000" d="m7.844 16.817-13.688.796a3.57 3.57 0 0 1-3.759-3.347l-1.587-27.324a3.57 3.57 0 0 1 3.346-3.76l13.688-.795a3.57 3.57 0 0 1 3.759 3.347l1.587 27.324a3.57 3.57 0 0 1-3.346 3.759"/></g><path fill="#ffab8f" d="M918.351 403.818a2.58 2.58 0 0 1-2.719-2.421l-.52-8.956a2.583 2.583 0 0 1 2.421-2.719 2.583 2.583 0 0 1 2.719 2.421l.52 8.956a2.583 2.583 0 0 1-2.421 2.719M1068.309 493.319c-3.056.062-5.607-2.389-5.669-5.445l-.18-8.898c-.062-3.056 2.389-5.607 5.445-5.669s5.607 2.389 5.669 5.445l.18 8.898c.062 3.056-2.389 5.607-5.445 5.669"/><path fill="#2b0000" d="M1003.568 367.063c-5.296 1.628-10.962-1.372-12.59-6.668l-1.704-5.541c-1.628-5.296 1.372-10.961 6.668-12.589s10.962 1.372 12.59 6.668l1.704 5.541c1.628 5.296-1.372 10.961-6.668 12.589"/><path fill="#ffab8f" d="M1020.626 359.95c-.981.186-4.896-.078-5.877.108l.577-5.072a9.58 9.58 0 0 0-8.433-10.602l-3.173-.362a9.58 9.58 0 0 0-10.603 8.434l-1.356 11.907a9.58 9.58 0 0 0 8.433 10.602l.002.001a4.696 4.696 0 0 1 4.189 5.148c-.352 3.484-3.235 4.25-3.971 4.578l17.689 2.34c.582-10.065.86-16.449 2.523-27.082"/><path fill="#2b0000" d="M1018.932 374.031s12.472-13.521 8.236-27.43-28.494-15.731-31.076-3.541 15.38 10.391 15.38 10.391 7.1 2.783 7.796 10.365z"/><path fill="#ffab8f" d="M1013.467 360.869c-.312 2.74 1.448 5.19 3.931 5.473s4.749-1.709 5.061-4.449-1.448-5.19-3.931-5.473-4.749 1.709-5.061 4.449"/><path fill="#2b0000" d="M1014.914 363.673a1.76 1.76 0 0 1-1.546-1.944l.708-6.214a1.76 1.76 0 0 1 1.944-1.546c.96.109 1.655.984 1.546 1.944l-.708 6.214a1.76 1.76 0 0 1-1.944 1.546"/><path fill="#f7c6c6" d="m937.386 402.358-15.411.957-1.583-25.521 15.411-.957z"/><path fill="#ff8272" d="m1052.403 393.856 15.63 25.844-13.378 11.295-21.67-23.747 14.965-17.091zM968.172 392.901l-13.869 25.636 4.334 22.171c9.711.624 20.92-16.509 32.064-32.868z"/><path fill="#fff" d="m955.557 440.119-4.14-19.973a2.36 2.36 0 0 1 4.618-.957l4.14 19.973a2.36 2.36 0 0 1-4.618.957M1069.966 423.869l-12.695 9.767a2.358 2.358 0 1 1-2.877-3.739l12.695-9.767a2.358 2.358 0 1 1 2.877 3.739M1003.788 380.571l-9.264 4.647 9.307 12.427 6.801-7.489z"/><path fill="#fff" d="m1018.55 379.383 7.705 5.835-9.307 12.427-6.801-7.489z"/></g><g clip-path="url(#a)"><g transform="translate(226.899 429.803)"><animateTransform fill="freeze" attributeName="transform" begin="0s" calcMode="spline" dur="3s" keySplines="0 0 1 1; 0.333 0 0.667 1; 0 0 1 1; 0.333 0 0.667 1" keyTimes="0; 0.016667; 0.183334; 0.85; 1" repeatCount="indefinite" type="translate" values="-288.101 -105.197; -288.101 -105.197; -288.101 -42.197; -288.101 -42.197; -288.101 -105.197"/><g transform="scale(1 .59)"><animateTransform fill="freeze" attributeName="transform" begin="0s" calcMode="spline" dur="3s" keySplines="0 0 1 1; 0.333 0 0.667 1; 0.333 0 0.667 1; 0.333 0 0.667 1" keyTimes="0; 0.016667; 0.183334; 0.85; 1" repeatCount="indefinite" type="scale" values="1 0.59; 1 0.59; 1 1; 1 1; 1 0.59"/><path fill="#f4b8b8" d="M1.913 157.862h-3.826v-315.724h3.826z"/></g></g><g transform="translate(237.406 632.911)"><animateTransform fill="freeze" attributeName="transform" begin="0s" calcMode="spline" dur="3s" keySplines="0 0 1 1; 0.333 0 0.667 1; 0 0 1 1; 0.333 0 0.667 1; 0 0 1 1" keyTimes="0; 0.016667; 0.183334; 0.85; 0.961111; 1" repeatCount="indefinite" type="translate" values="-277.594 97.911; -277.594 97.911; -277.594 169.911; -277.594 169.911; -277.594 97.911; -277.594 97.911"/><path fill="#2b0000" d="m-66.534 66.498 3.991-7.821-5.123-4.239c-.92-.761-2.165-1.198-3.237-.991-.784.151-1.441.581-1.784 1.253l-9.96 19.518c-.979 1.918 3.931 6.258 8.737.997 0 0 6.112-6.241 7.376-8.717"/><path fill="#2b0000" d="M36.893-120.46s-1.966-8.126-23.623-13.857c-7.749-2.051-21.557-.528-33.435.883-5.273.626-10.165 1.231-13.979 1.49-3.063.208-5.429.194-6.738-.209-6.549-2.017-11.992-3.16-16.149-3.059-3.084.075-5.46.836-7.051 2.434-2.349 2.359-2.989 6.541-1.68 13.036 3.392 16.824 31.137 26.774 35.92 28.709 4.782 1.935 68.118 11.625 66.735-29.427"><animate fill="freeze" attributeName="d" begin="0s" calcMode="spline" dur="3s" keySplines="0 0 1 1; 0 0 1 1; 0 0 1 1; 0 0 1 1; 0 0 1 1; 0 0 1 1; 0 0 1 1; 0 0 1 1; 0 0 1 1; 0 0 1 1; 0 0 1 1; 0 0 1 1" keyTimes="0; 0.016667; 0.044444; 0.072222; 0.1; 0.15; 0.216666; 0.283333; 0.4; 0.855555; 0.9; 0.933334; 1" repeatCount="indefinite" values="M51.651,-8.253C51.651,-8.253,49.685,-16.379,28.028,-22.11C20.279,-24.161,6.471,-22.638,-5.407,-21.227C-10.68,-20.601,-15.572,-19.996,-19.386,-19.737C-22.449,-19.529,-24.815,-19.543,-26.124,-19.946C-32.673,-21.963,-38.116,-23.106,-42.273,-23.005C-45.357,-22.93,-47.733,-22.169,-49.324,-20.571C-51.673,-18.212,-52.313,-14.03,-51.004,-7.535C-47.612,9.289,-19.867,19.239,-15.084,21.174C-10.302,23.109,53.034,32.799,51.651,-8.253Z; M51.651,-8.253C51.651,-8.253,49.685,-16.379,28.028,-22.11C20.279,-24.161,6.471,-22.638,-5.407,-21.227C-10.68,-20.601,-15.572,-19.996,-19.386,-19.737C-22.449,-19.529,-24.815,-19.543,-26.124,-19.946C-32.673,-21.963,-38.116,-23.106,-42.273,-23.005C-45.357,-22.93,-47.733,-22.169,-49.324,-20.571C-51.673,-18.212,-52.313,-14.03,-51.004,-7.535C-47.612,9.289,-19.867,19.239,-15.084,21.174C-10.302,23.109,53.034,32.799,51.651,-8.253Z; M51.651,-8.253C51.651,-8.253,49.685,-16.379,28.028,-22.11C20.997,-23.971,10.478,-25.889,-0.561,-24.619C-6.587,-23.926,-11.554,-25.022,-15.341,-26.308C-18.382,-27.341,-20.664,-28.496,-22.124,-28.946C-28.673,-30.963,-34.924,-32.044,-40.126,-31.862C-43.986,-31.727,-47.269,-30.897,-49.666,-29.237C-53.205,-26.787,-54.813,-22.53,-53.504,-16.035C-50.112,0.789,-19.367,14.239,-14.584,16.174C-9.802,18.109,53.034,32.799,51.651,-8.253Z; M53.651,-10.253C53.651,-10.253,49.685,-16.379,28.028,-22.11C20.954,-23.982,13.241,-31.197,2.152,-29.919C-3.83,-29.23,-8.483,-31.301,-11.998,-33.455C-14.821,-35.185,-16.909,-36.966,-18.361,-37.413C-24.91,-39.43,-31.796,-40.887,-37.821,-41.193C-42.292,-41.42,-46.288,-41.012,-49.319,-39.728C-53.794,-37.832,-56.165,-34.027,-54.856,-27.532C-51.464,-10.708,-26.423,12.535,-12.613,14.47C1.197,16.405,55.904,30.799,53.651,-10.253Z; M53.525,-10.128C53.525,-10.128,49.685,-16.379,28.028,-22.11C20.912,-23.993,12.816,-30.659,1.677,-29.372C-4.26,-28.687,-7.864,-32.401,-11.125,-36.717C-13.744,-40.183,-16.142,-44.039,-19.349,-46.315C-24.937,-50.281,-30.767,-51.61,-35.825,-50.933C-39.578,-50.431,-42.908,-48.824,-45.398,-46.368C-49.075,-42.743,-50.923,-37.269,-49.614,-30.774C-46.222,-13.95,-15.148,10.796,-3.269,14.391C9.54,18.268,55.724,30.924,53.525,-10.128Z; M53.462,-10.065C53.462,-10.065,49.685,-16.379,28.028,-22.11C20.891,-23.999,12.602,-30.39,1.439,-29.099C-4.476,-28.416,-9.661,-28.908,-14.31,-30.331C-18.044,-31.474,-21.432,-33.216,-24.576,-35.43C-30.196,-39.33,-35.765,-40.095,-40.471,-38.713C-43.963,-37.688,-46.981,-35.481,-49.193,-32.496C-52.459,-28.09,-53.97,-21.989,-52.661,-15.494C-49.269,1.33,-15.306,11.079,-3.665,14.619C8.874,18.43,55.633,30.987,53.462,-10.065Z; M53.399,-10.002C53.399,-10.002,50.685,-14.879,29.028,-20.61C21.869,-22.505,12.889,-24.62,1.701,-23.325C-4.192,-22.644,-11.52,-19.562,-18.058,-17.776C-23.309,-16.341,-28.05,-15.741,-31.13,-17.892C-36.782,-21.727,-41.166,-21.201,-44.325,-18.175C-46.669,-15.929,-48.339,-12.307,-49.352,-8.069C-50.848,-1.812,-50.912,5.787,-49.603,12.282C-46.211,29.106,-14.465,15.362,-3.062,18.846C9.208,22.592,55.543,31.05,53.399,-10.002Z; M53.336,-9.939C53.336,-9.939,50.649,-14.933,28.992,-20.664C21.812,-22.564,12.659,-24.549,1.446,-23.25C-4.424,-22.571,-12.896,-16.655,-20.432,-12.321C-26.484,-8.84,-31.934,-6.378,-34.95,-8.466C-40.634,-12.236,-44.374,-11.893,-46.684,-9.133C-48.398,-7.085,-49.326,-3.705,-49.678,0.314C-50.198,6.247,-49.462,13.574,-48.153,20.069C-44.761,36.893,-14.659,15.502,-3.494,18.93C8.507,22.611,55.453,31.113,53.336,-9.939Z; M53.273,-9.876C53.273,-9.876,50.613,-14.987,28.956,-20.718C21.755,-22.624,12.928,-19.477,1.69,-18.174C-3.68,-17.552,-12.058,-12.681,-19.862,-8.65C-27.381,-4.767,-33.368,-0.164,-36.621,-2.395C-44.648,1.296,-47.767,0.75,-49.664,3.492C-51.071,5.526,-52.135,7.877,-52.161,11.868C-52.2,17.76,-49.569,18.044,-48.26,24.539C-44.868,41.363,-14.853,15.642,-3.927,19.014C7.804,22.63,55.362,31.176,53.273,-9.876Z; M52.175,-8.777C52.175,-8.777,49.984,-15.929,28.327,-21.66C20.755,-23.664,10.056,-18.117,-1.615,-16.741C-7.073,-16.098,-12.162,-12.979,-16.317,-10.682C-19.654,-8.838,-22.388,-7.524,-24.228,-8.451C-30.669,-11.098,-36.578,-8.176,-41.079,-3.947C-44.419,-0.809,-46.984,3.047,-48.415,5.88C-50.405,9.651,-48.106,19.742,-45.861,25.293C-39.285,40.718,-18.248,18.077,-11.482,20.476C-4.456,22.954,53.786,32.275,52.175,-8.777Z; M52.025,-8.628C52.025,-8.628,49.899,-16.058,28.242,-21.789C20.619,-23.806,9.531,-15.409,-2.199,-14.023C-7.604,-13.385,-11.253,-10.062,-14.077,-7.525C-16.345,-5.488,-18.081,-3.959,-19.769,-4.736C-25.701,-6.997,-32.549,1.294,-36.79,3.873C-40.61,6.196,-35.532,14.563,-37.175,17.322C-39.268,20.69,-39.807,34.093,-37.83,39.914C-32.164,55.739,-14.21,31.909,-8.011,34.176C-1.626,36.499,53.571,32.424,52.025,-8.628Z; M51.913,-8.515C51.913,-8.515,49.834,-16.154,28.177,-21.885C20.516,-23.912,12.613,-10.577,0.839,-9.184C-4.527,-8.55,-8.702,-4.657,-11.96,-1.571C-14.577,0.908,-16.602,2.866,-18.176,2.201C-24.293,0.013,-25.219,7.474,-29.435,9.31C-33.034,10.959,-35.692,17.544,-37.319,19.954C-39.489,23.019,-42.059,29.156,-40.282,35.179C-35.298,51.304,-15.907,28.108,-10.133,30.275C-4.229,32.481,53.41,32.537,51.913,-8.515Z; M51.651,-8.253C51.651,-8.253,49.685,-16.379,28.028,-22.11C20.279,-24.161,6.471,-22.638,-5.407,-21.227C-10.68,-20.601,-15.572,-19.996,-19.386,-19.737C-22.449,-19.529,-24.815,-19.543,-26.124,-19.946C-32.673,-21.963,-38.116,-23.106,-42.273,-23.005C-45.357,-22.93,-47.733,-22.169,-49.324,-20.571C-51.673,-18.212,-52.313,-14.03,-51.004,-7.535C-47.612,9.289,-19.867,19.239,-15.084,21.174C-10.302,23.109,53.034,32.799,51.651,-8.253Z"/></path><path fill="#ffab8f" d="m-36.449-67.373-44.28 42.368 6.525 3.772 48.009-35.215z"/><path fill="#2b0000" d="m30.646 122.496-7.611-2.357-2.996 5.24c-.538.941-.736 2.122-.385 3.049.257.678.743 1.2 1.397 1.402l18.993 5.882c1.866.578 4.985-4.488-.463-7.971 0 0-6.525-4.499-8.935-5.245"/><path fill="#ffab8f" d="m19.099-3.372 11.547 125.868-7.611-2.357L-7.938-2.467z"/><path fill="#ffab8f" d="m-5.121 1.247-1.293 38.406a18.66 18.66 0 0 1-14.854 17.645l-43.3 5.346-3.099-8.206 45.777-13.806-7.027-34.109C-28.764-.65-22.78-4.95-16.176-2.632z"/><path fill="#5c0000" d="m-26.042 39.632 53.921 16.463c4.508-16.521-1.182-44.274-10.776-76.327l-42-7.221c-4.236 9.34-5.191 21.011-5.028 27.476-.669 4.02-.137 38.941 3.883 39.609"/><path fill="#8b1e3f" d="M-24.172-79.561c.884-2.608 1.915-5.247 3.693-7.282 2.437-2.79 6.027-4.109 9.504-4.348s6.905.49 10.287 1.214c4.533.971 15.166 3.462 19.699 4.433l13.374 3.812c3.326.948 6.695 1.915 9.653 3.758s5.509 4.695 6.351 8.302c.614 2.631.286 5.445-.158 8.163a100 100 0 0 1-3.224 13.648l-13.721-6.273c4.088 16.278-13.02 24.362-13.293 41.847-4.945-.659-36.991-8.495-42.891-10.69l-1.298-4.476c-.496-17.918 6.141-43.099 8.746-41.831l-8.633-3.264c-.781 1.955.41-2.584 1.911-7.013"/><g transform="rotate(-2 -781.693 -1566.56)"><animateTransform fill="freeze" attributeName="transform" begin="0s" calcMode="spline" dur="3s" keySplines="0 0 1 1; 0.333 0 0.667 1; 0.333 0 0.667 1; 0.333 0 0.667 1; 0.333 0 0.667 1; 0.333 0 0.667 1; 0 0 1 1" keyTimes="0; 0.322222; 0.35; 0.433333; 0.516667; 0.6; 0.627778; 1" repeatCount="indefinite" type="rotate" values="-2; -2; -5; 9.5; 9.5; -5; -2; -2"/><path fill="#ffab8f" d="M-5.47-22.794.624-8.316c.559 2.398 2.981.763 5.109-.475l21.704-14.866 8.386 4.443L8.95 2.743C2.138 8.309-8.125 5.585-11.279-2.627l-9.826-25.585z"/></g><path fill="#ffab8f" d="M-89.971-27.779c-.389 2.823 1.602 5.451 4.425 5.84l8.219 1.133c2.823.389 5.451-1.602 5.84-4.425s-1.603-5.451-4.426-5.84l-8.218-1.133c-2.823-.389-5.451 1.602-5.84 4.425"/><path fill="#2b0000" d="M24.154-100.447c4.734 2.066 10.298-.116 12.364-4.85l2.162-4.952c2.066-4.734-.116-10.298-4.85-12.364s-10.298.116-12.364 4.85l-2.162 4.952c-2.066 4.734.116 10.298 4.85 12.364"/><path fill="#ffab8f" d="M9.104-108.832c.889.275 4.543.443 5.432.719l-.001-4.758a8.93 8.93 0 0 1 8.929-8.932l2.977-.001a8.93 8.93 0 0 1 8.932 8.929l.002 11.171a8.93 8.93 0 0 1-8.929 8.932h-.001a4.38 4.38 0 0 0-4.423 4.328c-.041 3.264 2.549 4.276 3.196 4.658-2.895 4.493-6.988 17.747-10.785 17.187-4.031-.594-7.652-15.317-6.41-21.421 1.165-7.591 1.501-10.789 1.081-20.812"/><path fill="#2b0000" d="M9.189-95.611S-.939-109.449 4.45-121.885s28.049-11.568 29.157-.006-14.786 11.238-14.786 11.238-7.424-1.404-8.867 5.545z"/><path fill="#ffab8f" d="M15.639-107.227c0 2.57-1.888 4.655-4.218 4.655-2.33.001-4.219-2.083-4.22-4.653s1.888-4.655 4.218-4.655c2.33-.001 4.219 2.083 4.22 4.653"/><path fill="#8b1e3f" d="m-20.479-86.842-23.929 26.359 10.401 12.579 23.815-18.192-10.895-18.16zM48.61-68.369l7.268 29.622-5.71 15.77c-8.925-1.626-15.199-19.65-21.59-36.96z"/><path fill="#fff" d="m53.001-22.638 6.583-13.67a2 2 0 0 0-.935-2.672l-.355-.171a2 2 0 0 0-2.671.935l-6.583 13.67a2 2 0 0 0 .935 2.672l.355.171a2 2 0 0 0 2.671-.935M-46.872-56.979l10.027 11.064a2.2 2.2 0 0 0 3.259-2.954l-10.027-11.064a2.2 2.2 0 0 0-3.259 2.954"/></g></g><g clip-path="url(#a)"><g transform="translate(762.52 892.476)"><animateTransform fill="freeze" attributeName="transform" begin="0s" calcMode="spline" dur="3s" keySplines="0 0 1 1; 0.333 0 0.667 1; 0 0 1 1; 0.333 0 0.667 1; 0 0 1 1" keyTimes="0; 0.188889; 0.344445; 0.588889; 0.75; 1" repeatCount="indefinite" type="translate" values="247.52 357.476; 247.52 357.476; 246.482 356.361; 246.482 356.361; 247.52 357.476; 247.52 357.476"/><g><animateTransform fill="freeze" attributeName="transform" begin="0s" calcMode="spline" dur="3s" keySplines="0 0 1 1; 0.333 0 0.667 1; 0.333 0 0.667 1; 0.333 0 0.667 1; 0.333 0 0.667 1; 0.333 0 0.667 1; 0.333 0 0.667 1; 0.333 0 0.667 1; 0 0 1 1" keyTimes="0; 0.188889; 0.205556; 0.327778; 0.344445; 0.588889; 0.611111; 0.722222; 0.75; 1" repeatCount="indefinite" type="rotate" values="0; 0; 3.038; -17; -13; -13; -17; 3.038; 0; 0"/><g transform="translate(-32.568 -34.459)"><animateTransform fill="freeze" attributeName="transform" begin="0s" calcMode="spline" dur="3s" keySplines="0 0 1 1; 0.333 0 0.667 1; 0.333 0 0.667 1; 0.333 0 0.667 1; 0.333 0 0.667 1; 0.333 0 0.667 1; 0.333 0 0.667 1; 0.333 0 0.667 1; 0.333 0 0.667 1; 0 0 1 1" keyTimes="0; 0.183333; 0.211111; 0.3; 0.35; 0.416667; 0.572222; 0.616667; 0.738889; 0.761111; 1" repeatCount="indefinite" type="rotate" values="0; 0; 12; -7; 8; 20; -4; 9; -12; 1; 1"/><path fill="#ffab8f" d="M-5.845-10.368A4.165 4.165 0 0 1-.136-8.969l3.443 5.692a4.175 4.175 0 0 1-1.406 5.711 4.165 4.165 0 0 1-5.709-1.399l-3.443-5.692a4.175 4.175 0 0 1 1.406-5.711"/></g><path fill="#ffab8f" d="m-36.376-33.424-1.376 25.817a17.95 17.95 0 0 0 9.96 17.045l25.104 12.438L1.48.647l-26.825-3.636-3.915-34.747z"/><path fill="#e63946" d="m-34.591 6.45 31.903 19.004L-.287-2.28l-25.36-3.388-9.246 7.16c-1.675 1.297-1.518 3.874.302 4.958"/></g></g><path fill="#5c0000" d="M761.17 963.859v138.318h15.303l14.175-138.318z"/><path fill="#5c0000" d="m779.586 963.859 51.876 138.318h15.302l-37.7-138.318z"/><g transform="translate(828.3 932.97)"><animateTransform fill="freeze" attributeName="transform" begin="0s" calcMode="spline" dur="3s" keySplines="0 0 1 1; 0 0 1 1; 0 0 1 1; 0 0 1 1; 0 0 1 1" keyTimes="0; 0.016667; 0.144444; 0.694444; 0.827778; 1" repeatCount="indefinite" type="translate" values="313.3 397.97; 313.3 397.97; 316.463 395.693; 316.463 395.693; 313.3 397.97; 313.3 397.97"/><g><animateTransform fill="freeze" attributeName="transform" begin="0s" calcMode="spline" dur="3s" keySplines="0 0 1 1; 0 0 1 1; 0 0 1 1; 0 0 1 1; 0 0 1 1" keyTimes="0; 0.016667; 0.144444; 0.694444; 0.827778; 1" repeatCount="indefinite" type="rotate" values="0; 0; -1; -1; 0; 0"/><path fill="#ffab8f" d="M-33.975 35.837-6.16-6.496 9.683 5.161l-35.555 37.833z"/></g></g><g transform="translate(806.583 895.423)"><animateTransform fill="freeze" attributeName="transform" begin="0s" calcMode="spline" dur="3s" keySplines="0 0 1 1; 0 0 1 1; 0 0 1 1; 0 0 1 1; 0 0 1 1" keyTimes="0; 0.016667; 0.144444; 0.694444; 0.827778; 1" repeatCount="indefinite" type="rotate" values="0; 0; -3.3; -3.3; 0; 0"/><path fill="#e63946" d="m-1.243-4.683 28.032 25.22c7.096 6.383 9.804 16.841 6.217 24.006a3.36 3.36 0 0 1-4.9 1.268l-40.782-27.912z"/></g><path fill="#e63946" d="M801.16 887.925c-5.673-.17-10.294-.339-15.967-.509l-17.019.509c-4.233.127-6.125.441-8.045 2.591-2.817 3.154-2.683 23.502-2.683 23.502s2.926 51.553 3.723 69.579c6.07.613 44.227-.21 51.887-.983.573-12.958-.499-58.8-.499-72.714 0-16.566-9.545-21.92-11.397-21.975"/><g transform="translate(784.59 890.484)"><animateTransform fill="freeze" attributeName="transform" begin="0s" calcMode="spline" dur="3s" keySplines="0 0 1 1; 0 0 1 1; 0 0 1 1; 0 0 1 1; 0 0 1 1" keyTimes="0; 0.127778; 0.383333; 0.577778; 0.822223; 1" repeatCount="indefinite" type="rotate" values="0; 0; 3; 0; -2; 0"/><path fill="#ffab8f" d="m2.098-30.567-2.883 1.062-.272-5.228c-.282-5.419-4.904-9.583-10.323-9.301l-3.271.17c-5.419.282-9.583 4.905-9.301 10.324l.64 12.274c.282 5.419 4.904 9.583 10.323 9.301h.002c2.652-.169 3.892.961 5.328 4.707C-6.374-3.904-6.285-.741-6.243 2.85-1.916 2.004 3.64 1.019 8.045 1.2 5.773-9.601 2.213-19.53 2.098-30.567"/><path fill="#2b0000" d="M-20.323-34.905c-9.11-8.595 3.487-19.198 16.887-16.685 8.035 1.507 15.277 3.387 17.895 12.347.794 2.718.677 2.615.937 5.434.712 7.702-.708 6.905-5.02 15.045C4.038-6.8-8.451-11.357-10.88-14.782c-1.835-2.588-6.351-17.206-9.443-20.123"/><path fill="#ffab8f" d="M-10.272-2.765S-5.735.033 1.306.033s7.866-2.798 7.866-2.798L-.55-5.325zM-9.781-26.886c.178 3.409-1.771 6.281-4.352 6.416-2.581.134-4.818-2.519-4.996-5.928s1.771-6.281 4.352-6.416c2.582-.134 4.818 2.519 4.996 5.928"/></g></g><g clip-path="url(#a)"><path fill="#ffab8f" d="m988.135 1116.968 43.421 6.523-2.204 9.232-48.498 1.225z"/><path fill="#2b0000" d="m1032.554 1136.814-1.927-1.181c-3.519-2.157-4.935-6.687-3.406-10.897.47-1.294 1.42-2.485 2.549-2.962.826-.349 1.679-.355 2.362.063l19.839 12.158c1.949 1.195-.412 8.362-7.775 6.414 0 0-9.125-2.053-11.642-3.595"/><path fill="#ffab8f" d="m989.124 1122.682 43.143 8.159-2.551 9.143-48.509-.609z"/><path fill="#2b0000" d="m1032.761 1144.193-1.88-1.253c-3.435-2.288-4.679-6.867-2.992-11.017.519-1.276 1.513-2.43 2.659-2.864.838-.317 1.692-.292 2.358.152l19.364 12.9c1.903 1.268-.727 8.34-8.011 6.115 0 0-9.041-2.396-11.498-4.033"/><g transform="translate(974.997 1042.828)"><animateTransform fill="freeze" attributeName="transform" begin="0s" calcMode="spline" dur="3s" keySplines="0 0 1 1; 0.333 0 0.667 1; 0.333 0 0.667 1; 0.333 0 0.667 1; 0.333 0 0.667 1; 0.333 0 0.667 1; 0.333 0 0.667 1; 0.333 0 0.667 1; 0 0 1 1" keyTimes="0; 0.044444; 0.083333; 0.183333; 0.222222; 0.433333; 0.472222; 0.572222; 0.611111; 1" repeatCount="indefinite" type="rotate" values="0; 0; 3.167; -15; -9; -9; -15; 3.167; 0; 0"/><path fill="#f7c6c6" d="M-35.553-89.414c-3.065 13.76-16.704 22.431-30.464 19.366s-22.431-16.704-19.366-30.464 16.704-22.431 30.464-19.366 22.431 16.704 19.366 30.464"/><path fill="#f7c6c6" d="m-42.589-45.249-.443.191a1.753 1.753 0 0 1-2.296-.916l-9.624-22.398a1.75 1.75 0 0 1 .915-2.295l.443-.191a1.75 1.75 0 0 1 2.296.916l9.624 22.398a1.75 1.75 0 0 1-.915 2.295"/><path fill="#2b0000" d="M-33.219-22.853c-2.676 1.15-5.807-.099-6.957-2.775l-10.666-24.816c-1.15-2.676.099-5.807 2.775-6.957s5.807.099 6.957 2.775l10.666 24.816c1.15 2.676-.099 5.807-2.775 6.957M-75.218-68.746c-14.456-8.133-19.601-26.512-11.468-40.968s26.512-19.601 40.968-11.468S-26.117-94.67-34.25-80.213c-8.133 14.456-26.511 19.6-40.968 11.467m26.439-46.996c-11.457-6.445-26.021-2.369-32.467 9.089s-2.369 26.022 9.088 32.467c11.458 6.446 26.023 2.369 32.468-9.088 6.446-11.458 2.369-26.022-9.089-32.468"/><g transform="translate(-59.918 -94.44)"><animateTransform fill="freeze" attributeName="transform" begin="0s" calcMode="spline" dur="3s" keySplines="0 0 1 1; 0.333 0 0.667 1; 0.333 0 0.667 1; 0.167 0 0.667 1; 0.167 0 0.667 1; 0.333 0 0.667 1; 0 0 1 1" keyTimes="0; 0.044444; 0.216666; 0.294444; 0.405555; 0.538889; 0.672222; 1" repeatCount="indefinite" type="rotate" values="0; 0; 552; 360; 360; 552; 0; 0"/><path fill="#fff" d="M15.041-8.144a5.163 5.163 0 1 1-10.08-2.246 5.163 5.163 0 1 1 10.08 2.246"/></g><path fill="#ffab8f" d="m-39.83-27.179-.12.048c-2.789 1.121-5.99-.244-7.112-3.033l-2.931-7.284c-1.124-2.792.242-5.995 3.035-7.117l.12-.048c2.789-1.121 5.99.244 7.112 3.033l2.931 7.284c1.124 2.792-.242 5.995-3.035 7.117"/><path fill="#ffab8f" d="m-9.885.651-8.166 2.909A5.627 5.627 0 0 1-25.082.543l-12.159-28.825-11.714-6.985 12.247 42.968c2.216 7.776 10.917 11.664 18.188 8.129L.899 6.389z"/></g><path fill="#ffab8f" d="m1000.072 999.373-2.399 1.156-.671-4.487a8.516 8.516 0 0 0-9.682-7.163l-2.808.419a8.516 8.516 0 0 0-7.163 9.682l1.576 10.537a8.516 8.516 0 0 0 9.682 7.163h.001c2.274-.367 3.438.504 4.989 3.616 1.388 2.786 1.73 5.507 2.065 8.602 3.662-1.091 8.375-2.402 12.19-2.614-2.861-9.129-6.76-17.398-7.78-26.911"/><path fill="#2b0000" d="M980.365 997.501c-8.577-6.655 1.408-16.855 13.178-15.804 7.058.63 13.462 1.648 16.468 9.16.912 2.279.815.628 1.275 3.039 1.256 6.585-.047 7.587-3.089 14.969-4.471 10.85-15.626 7.96-18.007 5.208-1.799-2.079-6.914-14.314-9.825-16.572"/><path fill="#ffab8f" d="M990.129 1003.539c.438 2.926-1.004 5.567-3.22 5.898s-4.367-1.772-4.804-4.698 1.004-5.567 3.22-5.898 4.366 1.772 4.804 4.698"/><path fill="#d62839" d="m991 1027.75-31.267 9.923 6.321 21.109 30.693-13.086z"><animate fill="freeze" attributeName="d" begin="0s" calcMode="spline" dur="3s" keySplines="0 0 1 1; 0.333 0 0.667 1; 0.333 0 0.667 1; 0.333 0 0.667 1; 0.333 0 0.667 1; 0.333 0 0.667 1; 0.333 0 0.667 1; 0.333 0 0.667 1; 0 0 1 1" keyTimes="0; 0.044444; 0.072222; 0.183333; 0.211111; 0.433333; 0.461111; 0.572222; 0.6; 1" repeatCount="indefinite" values="M13.385,-14.55C13.385,-14.55,-17.882,-4.627,-17.882,-4.627C-17.882,-4.627,-11.561,16.482,-11.561,16.482C-11.561,16.482,19.132,3.396,19.132,3.396C19.132,3.396,13.385,-14.55,13.385,-14.55Z; M13.385,-14.55C13.385,-14.55,-17.882,-4.627,-17.882,-4.627C-17.882,-4.627,-11.561,16.482,-11.561,16.482C-11.561,16.482,19.132,3.396,19.132,3.396C19.132,3.396,13.385,-14.55,13.385,-14.55Z; M13.385,-14.55C13.385,-14.55,-17.632,-6.127,-17.632,-6.127C-17.632,-6.127,-11.561,16.482,-11.561,16.482C-11.561,16.482,19.132,3.396,19.132,3.396C19.132,3.396,13.385,-14.55,13.385,-14.55Z; M13.385,-14.55C13.385,-14.55,-17.382,-0.627,-17.382,-0.627C-17.382,-0.627,-8.061,21.482,-8.061,21.482C-8.061,21.482,19.132,3.396,19.132,3.396C19.132,3.396,13.385,-14.55,13.385,-14.55Z; M13.385,-14.55C13.385,-14.55,-17.882,-3.127,-17.882,-3.127C-17.882,-3.127,-9.061,19.982,-9.061,19.982C-9.061,19.982,19.132,3.396,19.132,3.396C19.132,3.396,13.385,-14.55,13.385,-14.55Z; M13.385,-14.55C13.385,-14.55,-17.882,-3.127,-17.882,-3.127C-17.882,-3.127,-9.061,19.982,-9.061,19.982C-9.061,19.982,19.132,3.396,19.132,3.396C19.132,3.396,13.385,-14.55,13.385,-14.55Z; M13.385,-14.55C13.385,-14.55,-17.382,-0.627,-17.382,-0.627C-17.382,-0.627,-8.061,21.482,-8.061,21.482C-8.061,21.482,19.132,3.396,19.132,3.396C19.132,3.396,13.385,-14.55,13.385,-14.55Z; M13.385,-14.55C13.385,-14.55,-17.632,-6.127,-17.632,-6.127C-17.632,-6.127,-11.561,16.482,-11.561,16.482C-11.561,16.482,19.132,3.396,19.132,3.396C19.132,3.396,13.385,-14.55,13.385,-14.55Z; M13.385,-14.55C13.385,-14.55,-17.882,-4.627,-17.882,-4.627C-17.882,-4.627,-11.561,16.482,-11.561,16.482C-11.561,16.482,19.132,3.396,19.132,3.396C19.132,3.396,13.385,-14.55,13.385,-14.55Z; M13.385,-14.55C13.385,-14.55,-17.882,-4.627,-17.882,-4.627C-17.882,-4.627,-11.561,16.482,-11.561,16.482C-11.561,16.482,19.132,3.396,19.132,3.396C19.132,3.396,13.385,-14.55,13.385,-14.55Z"/></path><path fill="#ffab8f" d="M994.948 1026.541s4.072 2.786 10.686 3.5c6.615.714 7.582-1.529 7.582-1.529l-8.959-3.116z"/><path fill="#e63946" d="M989.159 1086.795s-43.876 20.036-38.859 39.192 46.414 15.359 46.414 15.359l26.683-18.751c1.551-1.09 1.53-3.395-.04-4.456l-4.694-3.174s16.943-18.842-1.027-39.353-28.477 11.183-28.477 11.183"/><path fill="#d62839" d="M1008.546 1028.59c-5.328-.807-9.495-1.45-14.854-2.053-10.259-1.155-17.701 22.875-17.701 22.875s5.1 32.79 1.299 50.252c5.501 1.628 31.6 7.025 38.018-12.094 3.8-12.357 10.107-30.848 12.47-44.426 2.57-14.766-13.99-13.42-19.232-14.554"/><path fill="#2b0000" d="M986.909 1009.438s7.874 13.635 18.277 17.953 9.682-.072 9.682-.072 4.298-35.122-7.752-41.019-6.064 19.186-6.064 19.186z"/></g></svg>